<?xml version="1.0" standalone="no"?>
<!DOCTYPE svg PUBLIC "-//W3C//DTD SVG 20010904//EN"
 "http://www.w3.org/TR/2001/REC-SVG-20010904/DTD/svg10.dtd">
<svg version="1.0" xmlns="http://www.w3.org/2000/svg"
 width="500.000000pt" height="500.000000pt" viewBox="0 0 500.000000 500.000000"
 preserveAspectRatio="xMidYMid meet">

<g transform="translate(0.000000,500.000000) scale(0.100000,-0.100000)"
fill="#000000" stroke="none">
<path d="M2246 3590 c-71 -22 -156 -111 -171 -181 -5 -21 -18 -35 -44 -49 -65
-32 -98 -105 -80 -172 9 -34 7 -41 -16 -66 -14 -15 -33 -51 -42 -81 -20 -70
-6 -140 43 -212 28 -42 34 -60 34 -104 0 -30 5 -66 11 -82 17 -47 79 -103 120
-109 34 -6 37 -9 41 -48 6 -54 33 -110 71 -147 l30 -30 1 -181 1 -181 27 -17
c15 -9 41 -34 56 -56 40 -53 71 -79 111 -93 80 -26 148 0 206 82 22 31 45 56
52 57 28 1 42 31 42 98 1 37 2 76 2 87 0 11 -1 43 -2 70 -4 81 9 140 37 166
35 33 61 85 69 142 6 37 11 47 27 47 26 0 69 23 94 52 38 41 54 85 54 146 0
42 5 63 16 73 35 29 64 106 64 173 0 67 -10 100 -44 151 -16 23 -20 42 -17 88
3 68 -21 113 -79 146 -27 15 -40 32 -54 70 -51 143 -227 214 -360 147 l-48
-24 -51 24 c-55 25 -142 31 -201 14z m175 -51 l49 -21 0 -54 0 -53 -36 15
c-45 19 -109 15 -109 -6 0 -10 14 -17 43 -21 23 -3 55 -15 70 -26 l27 -20 3
-185 2 -184 -40 -23 c-44 -24 -107 -30 -151 -13 -33 13 -74 62 -89 107 -11 33
-32 46 -44 27 -10 -17 15 -83 45 -116 33 -39 28 -47 -29 -48 -83 -1 -146 61
-146 144 0 51 19 86 66 121 55 41 188 11 188 -42 0 -34 51 -121 71 -121 25 0
24 25 -1 57 -37 48 -20 157 30 183 22 12 26 35 10 45 -16 10 -55 -19 -80 -59
-21 -35 -22 -35 -50 -21 -16 8 -36 15 -45 15 -22 0 -19 48 5 88 19 32 24 34
68 30 57 -4 65 19 15 41 -28 12 -32 18 -26 40 8 34 22 51 51 62 26 10 25 32
-2 37 -42 8 -96 -61 -96 -122 0 -14 -8 -30 -19 -35 -23 -13 -51 -70 -51 -105
0 -21 -7 -27 -40 -36 -22 -6 -55 -24 -74 -40 -36 -32 -46 -27 -46 25 0 59 61
115 125 115 28 0 34 24 9 38 -38 21 60 140 137 168 51 19 105 16 160 -7z m300
9 c52 -15 118 -73 140 -122 16 -36 16 -41 2 -51 -18 -13 -10 -51 8 -40 19 13
94 -24 112 -54 17 -30 22 -67 11 -95 -5 -14 -12 -11 -40 14 -19 16 -52 34 -74
40 -34 9 -40 15 -40 38 0 28 -33 92 -55 104 -7 4 -16 29 -20 54 -8 56 -52 107
-87 102 -28 -4 -35 -26 -11 -35 58 -20 73 -82 26 -105 -47 -22 -36 -44 19 -40
44 4 49 2 68 -30 31 -50 27 -81 -12 -94 -18 -6 -40 -14 -48 -18 -10 -4 -19 3
-28 24 -15 33 -67 75 -82 65 -16 -10 -11 -34 10 -45 50 -26 67 -135 30 -183
-23 -29 -26 -57 -6 -57 22 0 55 48 68 97 14 58 52 85 120 85 81 0 141 -58 141
-135 0 -84 -63 -150 -143 -149 -59 1 -63 9 -31 50 34 45 55 102 42 115 -14 14
-41 1 -41 -20 0 -26 -35 -79 -64 -98 -57 -38 -138 -36 -193 4 -22 16 -22 20
-23 202 l0 187 26 17 c14 9 42 19 62 22 55 7 62 11 56 28 -8 19 -63 20 -109 1
l-35 -15 0 53 0 53 48 21 c54 24 98 27 153 10z m-726 -577 c31 -60 122 -110
181 -98 15 3 30 -3 42 -17 25 -27 72 -98 72 -108 0 -5 -25 -8 -55 -8 -89 0
-152 41 -192 124 -20 44 -37 51 -41 19 -4 -28 28 -91 65 -125 31 -29 91 -58
122 -58 15 0 22 -10 28 -42 6 -27 14 -43 23 -43 11 0 15 11 14 43 -1 34 3 42
17 42 9 0 24 3 32 6 8 3 17 -2 20 -13 3 -10 15 -45 27 -77 23 -68 19 -76 -43
-76 -68 0 -126 44 -150 115 -8 22 -20 40 -28 40 -22 0 -22 -43 1 -86 l21 -41
-33 7 c-70 15 -116 90 -104 172 5 39 2 49 -20 75 -64 77 -80 158 -47 240 l17
43 8 -53 c4 -29 15 -66 23 -81z m1051 83 c29 -70 10 -160 -49 -230 -23 -27
-25 -37 -21 -85 8 -83 -34 -147 -109 -165 l-29 -7 22 42 c23 46 23 86 1 86 -8
0 -20 -18 -28 -40 -24 -71 -82 -115 -150 -115 -65 0 -68 8 -39 90 13 39 26 73
28 75 2 2 17 0 33 -3 27 -6 30 -11 30 -47 0 -56 26 -55 38 1 7 38 11 42 46 48
51 8 114 55 146 110 26 44 30 86 10 88 -5 0 -20 -19 -33 -43 -29 -56 -49 -77
-94 -100 -41 -21 -148 -27 -148 -8 0 13 53 91 74 108 8 7 38 14 65 15 96 6
173 82 175 174 1 55 11 57 32 6z m-508 -131 c41 -24 57 -28 125 -27 42 0 77
-1 77 -3 0 -2 -16 -25 -36 -51 -83 -109 -144 -292 -144 -434 l0 -78 -64 0 -63
0 -6 103 c-8 150 -56 288 -143 410 -19 26 -34 50 -34 53 0 3 24 2 53 -1 61 -8
124 6 159 35 12 11 24 19 26 20 2 0 24 -12 50 -27z m-306 -409 c22 -11 49 -15
88 -12 l58 4 6 -50 c3 -28 6 -68 6 -88 l0 -38 -54 0 c-50 0 -56 3 -90 41 -43
46 -56 77 -56 125 0 39 1 39 42 18z m568 -19 c0 -43 -22 -89 -63 -132 -27 -29
-37 -33 -84 -33 l-53 0 0 59 c0 32 3 72 6 88 6 29 6 29 63 25 40 -3 67 1 87
12 41 22 44 20 44 -19z m-513 -267 c-2 -13 -4 -5 -4 17 -1 22 1 32 4 23 2 -10
2 -28 0 -40z m309 30 c-3 -13 -6 -31 -6 -41 0 -16 -10 -17 -97 -15 l-98 3 -3
38 -3 37 107 0 c105 0 106 0 100 -22z m111 -30 c-2 -13 -4 -5 -4 17 -1 22 1
32 4 23 2 -10 2 -28 0 -40z m-107 -73 c0 -12 -18 -15 -105 -15 -87 0 -105 3
-105 15 0 12 18 15 105 15 87 0 105 -3 105 -15z m10 -53 c-5 -2 -10 -10 -10
-18 0 -14 -9 -15 -95 -16 -93 -1 -115 2 -115 16 0 8 -8 16 -17 18 -9 2 43 3
115 3 73 0 128 -1 122 -3z m23 -70 c-21 -2 -33 -9 -33 -18 0 -11 -20 -14 -105
-14 -85 0 -105 3 -105 14 0 9 -12 16 -32 18 -18 2 44 3 137 3 94 0 155 -1 138
-3z m-306 -58 c-3 -3 -12 -4 -19 -1 -8 3 -5 6 6 6 11 1 17 -2 13 -5z m360 0
c-3 -3 -12 -4 -19 -1 -8 3 -5 6 6 6 11 1 17 -2 13 -5z m-72 -15 c-25 -10 -211
-10 -245 0 -14 4 40 7 120 8 79 0 136 -4 125 -8z m-60 -71 c-10 -6 -38 -11
-60 -11 -22 0 -50 5 -60 11 -16 9 -5 11 60 11 65 0 76 -2 60 -11z m35 -32 c0
-2 -8 -10 -17 -17 -16 -13 -17 -12 -4 4 13 16 21 21 21 13z"/>
</g>
</svg>
